<svg width="68" height="42" viewBox="0 0 68 42" fill="none" xmlns="http://www.w3.org/2000/svg">
<g filter="url(#filter0_d_1115_82)">
<mask id="path-1-inside-1_1115_82" fill="white">
<path fill-rule="evenodd" clip-rule="evenodd" d="M4.4534 0C3.34883 0 2.4534 0.89543 2.4534 2V28C2.4534 29.1046 3.34883 30 4.4534 30H28.7656L35.5 36.1018L42.2344 30H63.4534C64.558 30 65.4534 29.1046 65.4534 28V2C65.4534 0.895431 64.558 0 63.4534 0H4.4534Z"/>
</mask>
<path fill-rule="evenodd" clip-rule="evenodd" d="M4.4534 0C3.34883 0 2.4534 0.89543 2.4534 2V28C2.4534 29.1046 3.34883 30 4.4534 30H28.7656L35.5 36.1018L42.2344 30H63.4534C64.558 30 65.4534 29.1046 65.4534 28V2C65.4534 0.895431 64.558 0 63.4534 0H4.4534Z" fill="white"/>
<path d="M28.7656 30L29.437 29.2589L29.1513 29H28.7656V30ZM35.5 36.1018L34.8286 36.8428L35.5 37.4512L36.1714 36.8428L35.5 36.1018ZM42.2344 30V29H41.8487L41.563 29.2589L42.2344 30ZM3.4534 2C3.4534 1.44772 3.90111 1 4.4534 1V-1C2.79655 -1 1.4534 0.343146 1.4534 2H3.4534ZM3.4534 28V2H1.4534V28H3.4534ZM4.4534 29C3.90112 29 3.4534 28.5523 3.4534 28H1.4534C1.4534 29.6569 2.79654 31 4.4534 31V29ZM28.7656 29H4.4534V31H28.7656V29ZM36.1714 35.3607L29.437 29.2589L28.0942 30.7411L34.8286 36.8428L36.1714 35.3607ZM41.563 29.2589L34.8286 35.3607L36.1714 36.8428L42.9058 30.7411L41.563 29.2589ZM63.4534 29H42.2344V31H63.4534V29ZM64.4534 28C64.4534 28.5523 64.0057 29 63.4534 29V31C65.1103 31 66.4534 29.6569 66.4534 28H64.4534ZM64.4534 2V28H66.4534V2H64.4534ZM63.4534 1C64.0057 1 64.4534 1.44772 64.4534 2H66.4534C66.4534 0.343146 65.1103 -1 63.4534 -1V1ZM4.4534 1H63.4534V-1H4.4534V1Z" fill="#D3D3D3" mask="url(#path-1-inside-1_1115_82)"/>
</g>
<defs>
<filter id="filter0_d_1115_82" x="0.4534" y="0" width="67" height="41.1018" filterUnits="userSpaceOnUse" color-interpolation-filters="sRGB">
<feFlood flood-opacity="0" result="BackgroundImageFix"/>
<feColorMatrix in="SourceAlpha" type="matrix" values="0 0 0 0 0 0 0 0 0 0 0 0 0 0 0 0 0 0 127 0" result="hardAlpha"/>
<feOffset dy="3"/>
<feGaussianBlur stdDeviation="1"/>
<feColorMatrix type="matrix" values="0 0 0 0 0 0 0 0 0 0 0 0 0 0 0 0 0 0 0.1 0"/>
<feBlend mode="normal" in2="BackgroundImageFix" result="effect1_dropShadow_1115_82"/>
<feBlend mode="normal" in="SourceGraphic" in2="effect1_dropShadow_1115_82" result="shape"/>
</filter>
</defs>
</svg>
