<svg width="170" height="41" viewBox="0 0 170 41" fill="none" xmlns="http://www.w3.org/2000/svg">
<path d="M11.1318 29.1545H40.3227C40.7954 29.1545 41.15 28.8 41.15 28.3273V8.82727C41.15 8.35455 40.7954 8 40.3227 8H11.1318C10.7182 8 10.3636 8.35455 10.3636 8.82727V28.3273C10.3636 28.8 10.7182 29.1545 11.1318 29.1545Z" fill="#212528"/>
<path d="M8 32.05C8 32.9955 8.76818 34 9.77273 34H41.6818C42.6273 34 43.4545 32.9955 43.4545 32.05H8Z" fill="#212528"/>
<path d="M40.5 29.1545H10.9545L8 32.05H43.4545L40.5 29.1545Z" fill="#DDDDDD"/>
<path d="M39.4955 29.3909H11.9591L10.9546 30.5727H40.5L39.4955 29.3909Z" fill="#BFBEBE"/>
<path d="M28.7409 31.1045H22.7136L22.2409 31.7545H29.2136L28.7409 31.1045Z" fill="#212528"/>
<path d="M12.1364 9.77272H39.3182V27.3818H12.1364V9.77272Z" fill="#3E4347"/>
<path d="M25.7272 9.41819C25.9883 9.41819 26.2 9.20654 26.2 8.94546C26.2 8.68438 25.9883 8.47273 25.7272 8.47273C25.4662 8.47273 25.2545 8.68438 25.2545 8.94546C25.2545 9.20654 25.4662 9.41819 25.7272 9.41819Z" fill="#DDDDDD"/>
<path d="M28.2682 33.2909H23.1864C23.0091 33.2909 22.5364 33.2909 22.5364 32.7H28.9182C28.9182 33.2909 28.4455 33.2909 28.2682 33.2909Z" fill="#3E4347"/>
<g clip-path="url(#clip0_1111_234)">
<path d="M65 33.1875C71.731 33.1875 77.1875 27.731 77.1875 21C77.1875 14.269 71.731 8.8125 65 8.8125C58.269 8.8125 52.8125 14.269 52.8125 21C52.8125 27.731 58.269 33.1875 65 33.1875Z" fill="#FFDD67"/>
<path d="M59.7187 16.45C59.7187 15.475 61.8719 15.9219 62.5625 16.6125C62.9687 15.9219 62.7656 15.3125 62.7656 15.3125C62.7656 15.3125 62.1562 14.8656 61.2219 14.7031V13.8094C60.4906 13.5656 59.6781 13.8094 59.6781 13.8094V14.6625C59.6781 14.6625 58.2156 14.9469 58.2156 16.45C58.2156 18.4406 61.2219 18.0344 61.2219 19.2938C61.2219 20.2281 59.1906 19.8219 58.2156 19.0906C57.8906 19.8219 58.2156 20.4719 58.2156 20.4719C58.9469 20.7969 59.6781 20.8781 59.6781 20.8781V21.6906C59.6781 21.6906 60.4906 21.9344 61.2219 21.6906V20.8375C61.2219 20.8375 62.9281 20.7563 62.9281 19.2938C62.9687 17.3844 59.7187 17.5469 59.7187 16.45Z" fill="#664E27"/>
<path d="M68.6562 16.45C68.6562 15.475 70.8094 15.9219 71.5 16.6125C71.9062 15.9219 71.7031 15.3125 71.7031 15.3125C71.7031 15.3125 71.0937 14.8656 70.1594 14.7031V13.8094C69.4281 13.5656 68.6156 13.8094 68.6156 13.8094V14.6625C68.6156 14.6625 67.1531 14.9469 67.1531 16.45C67.1531 18.4406 70.1594 18.0344 70.1594 19.2938C70.1594 20.2281 68.1281 19.8219 67.1531 19.0906C66.8281 19.8219 67.1531 20.4719 67.1531 20.4719C67.8844 20.7969 68.6156 20.8781 68.6156 20.8781V21.6906C68.6156 21.6906 69.4281 21.9344 70.1594 21.6906V20.8375C70.1594 20.8375 71.8656 20.7563 71.8656 19.2938C71.9062 17.3844 68.6562 17.5469 68.6562 16.45Z" fill="#664E27"/>
<path d="M71.4594 23.4375H58.5406C58.2563 23.4375 58.0938 23.6406 58.0938 23.8438C58.0938 26.8094 60.5312 29.9375 65 29.9375C69.4688 29.9375 71.9062 26.8094 71.9062 23.8438C71.9062 23.6406 71.7438 23.4375 71.4594 23.4375Z" fill="#664E27"/>
<path d="M68.7375 25.875H61.2625C60.9781 25.875 60.9375 25.9969 60.9375 26.2V27.825C60.9375 31.4 62.7656 33.1875 65 33.1875C67.2344 33.1875 69.0625 31.4 69.0625 27.825V26.2C69.0625 25.9969 69.0219 25.875 68.7375 25.875Z" fill="#74E063"/>
<path d="M64.4719 28.1094C64.4719 27.4594 65.8125 27.7844 66.2594 28.2313C66.5437 27.7844 66.3812 27.3781 66.3812 27.3781C66.3812 27.3781 65.975 27.0938 65.4062 26.9719V26.3625C64.9594 26.2 64.4312 26.3625 64.4312 26.3625V26.9313C64.4312 26.9313 63.4969 27.0938 63.4969 28.1094C63.4969 29.4094 65.4062 29.125 65.4062 29.9781C65.4062 30.5875 64.1469 30.3438 63.4969 29.8563C63.2937 30.3438 63.4969 30.75 63.4969 30.75C63.9437 30.9531 64.4312 31.0344 64.4312 31.0344V31.5625C64.4312 31.5625 64.9187 31.725 65.4062 31.5625V30.9938C65.4062 30.9938 66.4625 30.9125 66.4625 29.9781C66.5437 28.7188 64.4719 28.8406 64.4719 28.1094Z" fill="#449636"/>
<path d="M68.0875 25.875V27.2969C68.0875 30.6688 66.8687 32.1719 65 32.1719C63.1312 32.1719 61.9125 30.7094 61.9125 27.2969V25.875H61.5875V27.2969C61.5875 30.9125 62.9281 32.5375 65 32.5375C67.0719 32.5375 68.4125 30.9125 68.4125 27.2969V25.875H68.0875Z" fill="#449636"/>
</g>
<defs>
<clipPath id="clip0_1111_234">
<rect width="26" height="26" fill="white" transform="translate(52 8)"/>
</clipPath>
</defs>
</svg>
