<svg width="247" height="34" viewBox="0 0 247 34" fill="none" xmlns="http://www.w3.org/2000/svg">
<path d="M57.0775 4.00018H34.9225C34.6735 3.99674 34.4262 4.0421 34.1948 4.13367C33.9634 4.22523 33.7524 4.36121 33.5739 4.53384C33.3954 4.70647 33.2528 4.91236 33.1543 5.13976C33.0558 5.36716 33.0034 5.61161 33 5.85916V28.1408C33.0034 28.3884 33.0558 28.6328 33.1543 28.8602C33.2528 29.0876 33.3954 29.2935 33.5739 29.4662C33.7524 29.6388 33.9634 29.7748 34.1948 29.8663C34.4262 29.9579 34.6735 30.0033 34.9225 29.9998H57.0775C57.3265 30.0033 57.5738 29.9579 57.8052 29.8663C58.0366 29.7748 58.2476 29.6388 58.4261 29.4662C58.6046 29.2935 58.7472 29.0876 58.8457 28.8602C58.9442 28.6328 58.9966 28.3884 59 28.1408V5.85916C58.9966 5.61161 58.9442 5.36716 58.8457 5.13976C58.7472 4.91236 58.6046 4.70647 58.4261 4.53384C58.2476 4.36121 58.0366 4.22523 57.8052 4.13367C57.5738 4.0421 57.3265 3.99674 57.0775 4.00018ZM40.8863 25.7619H36.9628V14.062H40.8863V25.7619ZM38.9245 12.4241C38.3834 12.4241 37.8645 12.2104 37.4819 11.8301C37.0993 11.4498 36.8843 10.9339 36.8843 10.3961C36.8843 9.85824 37.0993 9.34242 37.4819 8.9621C37.8645 8.58178 38.3834 8.36812 38.9245 8.36812C39.2119 8.33573 39.5028 8.36403 39.7784 8.45117C40.054 8.5383 40.3079 8.68231 40.5236 8.87376C40.7393 9.06521 40.9119 9.29979 41.03 9.56213C41.1482 9.82447 41.2092 10.1087 41.2092 10.3961C41.2092 10.6835 41.1482 10.9677 41.03 11.2301C40.9119 11.4924 40.7393 11.727 40.5236 11.9184C40.3079 12.1099 40.054 12.2539 39.7784 12.341C39.5028 12.4282 39.2119 12.4565 38.9245 12.4241ZM55.0372 25.7619H51.1137V19.483C51.1137 17.91 50.5513 16.883 49.1258 16.883C48.6846 16.8862 48.255 17.0238 47.8949 17.2771C47.5347 17.5305 47.2614 17.8875 47.1117 18.3C47.0093 18.6055 46.965 18.9273 46.9809 19.249V25.7489H43.0573C43.0573 25.7489 43.0573 15.115 43.0573 14.049H46.9809V15.7C47.3373 15.0853 47.8557 14.5788 48.4803 14.2352C49.1048 13.8916 49.8118 13.7239 50.5252 13.75C53.1408 13.75 55.0372 15.427 55.0372 19.028V25.7619Z" fill="#292D32"/>
<path d="M8.09957 13.7418H9.56561C9.73414 13.0345 9.95277 12.3842 10.2123 11.8093C9.71023 12.0888 9.24953 12.4369 8.84352 12.8435C8.56795 13.119 8.31887 13.4197 8.09957 13.7418ZM8.09957 20.653C8.31889 20.975 8.56796 21.2757 8.84352 21.5512C9.24953 21.9579 9.71023 22.3059 10.2123 22.5854C9.95272 22.0105 9.73414 21.3602 9.56561 20.653H8.09957ZM18.2952 13.7418C18.0758 13.4197 17.8268 13.119 17.5512 12.8435C17.1452 12.4369 16.6845 12.0888 16.1824 11.8093C16.442 12.3842 16.6606 13.0345 16.8291 13.7418H18.2952ZM14.3548 12.3537C13.8586 11.3612 13.3607 11.0401 13.1974 11.0401C13.034 11.0401 12.5362 11.3612 12.0399 12.3537C11.8344 12.7648 11.658 13.2331 11.5137 13.7418H14.8811C14.7367 13.2331 14.5604 12.7648 14.3548 12.3537ZM12.0399 22.0411C12.5362 23.0335 13.034 23.3546 13.1974 23.3546C13.3607 23.3546 13.8586 23.0335 14.3548 22.0411C14.5604 21.6299 14.7368 21.1616 14.8811 20.653H11.5137C11.658 21.1616 11.8344 21.63 12.0399 22.0411ZM9.17629 17.1974C9.17629 16.6598 9.20289 16.1347 9.25321 15.6266H7.24159C7.10894 16.1331 7.04007 16.6599 7.04007 17.1974C7.04007 17.7348 7.10889 18.2616 7.24159 18.7681H9.25321C9.20176 18.2461 9.17609 17.7219 9.17629 17.1974ZM17.2184 17.1974C17.2184 17.735 17.1918 18.2601 17.1415 18.7681H19.1531C19.2858 18.2616 19.3547 17.7348 19.3547 17.1974C19.3547 16.6599 19.2858 16.1331 19.1531 15.6266H17.1415C17.193 16.1486 17.2186 16.6728 17.2184 17.1974Z" fill="#292D32"/>
<path d="M13.1974 4C5.90866 4 0 9.90866 0 17.1974C0 24.4861 5.90866 30.3947 13.1974 30.3947C20.4861 30.3947 26.3947 24.4861 26.3947 17.1974C26.3947 9.90866 20.4861 4 13.1974 4ZM13.1974 25.2395C8.75584 25.2395 5.15522 21.6389 5.15522 17.1974C5.15522 12.7558 8.75584 9.15522 13.1974 9.15522C17.6389 9.15522 21.2395 12.7558 21.2395 17.1974C21.2395 21.6389 17.6389 25.2395 13.1974 25.2395Z" fill="#292D32"/>
<path d="M11.1495 15.6266C11.0916 16.137 11.0612 16.6642 11.0612 17.1974C11.0612 17.7305 11.0916 18.2577 11.1495 18.7681H15.2452C15.3032 18.2577 15.3336 17.7305 15.3336 17.1974C15.3336 16.6642 15.3032 16.137 15.2452 15.6266H11.1495ZM16.1824 22.5854C16.6845 22.3059 17.1452 21.9579 17.5512 21.5512C17.8268 21.2757 18.0758 20.975 18.2951 20.653H16.8291C16.6606 21.3602 16.442 22.0105 16.1824 22.5854Z" fill="#292D32"/>
</svg>
